# xmcd
# 
# Track frame offsets:
#     150
#     12061
#     30805
#     46717
#     62310
#     80020
#     103142
#     116837
#     126973
#     144872
#     159617
#     176148
# 
# Disc length: 2538
# 
# Revision: 3
# Processed by: cddbd v1.5.2PL0 Copyright (c) Steve Scherf et al.
# Submitted via: BonkEnc v1.0.6
# 
DISCID=9009e80c
DTITLE=Sara Lazarus with Biréli Lagrène Gipsy Project - It's All Right With Me
DYEAR=2006
DGENRE=Jazz
TTITLE0=Gypsy in My Soul
TTITLE1=Taking a Chance on Love
TTITLE2=What a Little Moonlight Can Do
TTITLE3=Embraceable You
TTITLE4=It's All Right With Me
TTITLE5=Dans Mon Ile
TTITLE6=Deed I Do
TTITLE7=Down With Love
TTITLE8=Jim
TTITLE9=The Way You Look Tonight
TTITLE10=In The Wee Small Hours of the Morning
TTITLE11=Cheek to Check
EXTD=YEAR: 2006
EXTT0=
EXTT1=
EXTT2=
EXTT3=
EXTT4=
EXTT5=
EXTT6=
EXTT7=
EXTT8=
EXTT9=
EXTT10=
EXTT11=
PLAYORDER=
